<?xml version="1.0" encoding="utf-8"?>
<!-- Generator: Adobe Illustrator 16.0.0, SVG Export Plug-In . SVG Version: 6.00 Build 0)  -->
<!DOCTYPE svg PUBLIC "-//W3C//DTD SVG 1.1//EN" "http://www.w3.org/Graphics/SVG/1.1/DTD/svg11.dtd">
<svg version="1.1" id="Capa_1" xmlns="http://www.w3.org/2000/svg" xmlns:xlink="http://www.w3.org/1999/xlink" x="0px" y="0px"
	 width="550px" height="160px" viewBox="0 0 550 160" enable-background="new 0 0 550 160" xml:space="preserve">
<g>
	<g>
		<path fill="#FFFFFF" d="M482.662,81.306c-0.404-0.452-0.83-0.94-1.281-1.452c-0.439-0.518-0.866-1.067-1.324-1.641
			c-0.453-0.573-0.948-1.161-1.416-1.792c-0.463-0.64-0.937-1.3-1.433-1.979c-0.24-0.339-0.489-0.684-0.738-1.03
			c-0.237-0.36-0.479-0.719-0.715-1.088c-0.477-0.733-0.976-1.475-1.453-2.247c-0.921-1.567-1.91-3.164-2.758-4.858
			c-0.915-1.662-1.689-3.429-2.507-5.163c-0.729-1.778-1.493-3.529-2.082-5.321c-0.671-1.749-1.161-3.538-1.682-5.237
			c-0.241-0.857-0.442-1.712-0.654-2.537c-0.1-0.421-0.202-0.828-0.309-1.23c-0.082-0.411-0.163-0.813-0.25-1.212
			c-0.155-0.802-0.313-1.571-0.46-2.322c-0.143-0.753-0.232-1.483-0.344-2.181c-0.103-0.701-0.215-1.366-0.297-2.006
			c-0.065-0.639-0.129-1.249-0.181-1.817c-0.06-0.573-0.121-1.103-0.169-1.593c-0.042-0.493-0.055-0.945-0.079-1.36
			c-0.053-0.961-0.087-1.674-0.114-2.097L460.791,18.4c-1.448,3.39-21.327,51.403,8.508,65.289c0,0,7.054,2.716,14.009-0.061
			c0.219-0.083,0.439-0.173,0.666-0.267c0.134-0.051,0.267-0.111,0.396-0.169c-0.177-0.183-0.371-0.381-0.572-0.603
			C483.449,82.192,483.071,81.765,482.662,81.306"/>
		<path fill="#FFFFFF" d="M490.847,49.434c-2.064-2.084-4.486-4.215-7.32-6.368c-23.349-17.715-22.648-24.864-22.648-24.864
			l-0.087,0.186c0.423,3.254,1.111,8.615,1.622,12.653c-0.013-0.241-0.021-0.374-0.021-0.374s0.164,0.925,0.452,2.538
			c0.077,0.4,0.146,0.849,0.251,1.327c0.102,0.484,0.226,1.001,0.351,1.556c0.125,0.555,0.263,1.145,0.399,1.764
			c0.155,0.618,0.354,1.257,0.537,1.932c0.189,0.669,0.371,1.373,0.596,2.084c0.24,0.716,0.481,1.454,0.734,2.216
			c0.121,0.369,0.249,0.758,0.384,1.14c0.141,0.381,0.291,0.767,0.447,1.157c0.305,0.78,0.602,1.576,0.928,2.382
			c0.71,1.584,1.39,3.238,2.238,4.839c0.776,1.64,1.72,3.228,2.604,4.831c0.986,1.555,1.915,3.13,2.978,4.591
			c0.988,1.501,2.106,2.883,3.135,4.242c0.542,0.666,1.093,1.303,1.617,1.928c0.267,0.319,0.529,0.623,0.787,0.934
			c0.271,0.292,0.538,0.588,0.804,0.871c0.529,0.573,1.051,1.128,1.549,1.666c0.504,0.534,1.028,1.021,1.511,1.497
			c0.485,0.471,0.94,0.944,1.394,1.354c0.45,0.403,0.88,0.788,1.286,1.144c0.398,0.356,0.776,0.69,1.125,1.001
			c0.361,0.314,0.731,0.602,1.049,0.858c0.376,0.314,0.698,0.577,0.978,0.802c0.981-0.894,1.861-1.874,2.635-2.916
			C487.573,68.638,486.447,58.224,490.847,49.434"/>
		<path fill="#FFFFFF" d="M537.891,1.836l-2.1,16.466c-0.034,0.557-0.086,1.476-0.146,2.714c-0.038,0.533-0.055,1.119-0.106,1.757
			c-0.065,0.641-0.137,1.322-0.211,2.06c-0.076,0.737-0.159,1.525-0.242,2.349c-0.099,0.826-0.248,1.685-0.378,2.588
			c-0.146,0.898-0.266,1.853-0.442,2.819c-0.198,0.97-0.396,1.969-0.603,2.991c-0.107,0.521-0.215,1.046-0.322,1.575
			c-0.129,0.521-0.263,1.051-0.4,1.586c-0.274,1.071-0.533,2.174-0.834,3.283c-0.679,2.196-1.312,4.501-2.172,6.768
			c-0.769,2.31-1.763,4.573-2.697,6.872c-1.053,2.243-2.052,4.521-3.233,6.666c-1.105,2.199-2.379,4.254-3.562,6.28
			c-0.625,0.997-1.265,1.954-1.88,2.902c-0.31,0.475-0.623,0.946-0.925,1.407c-0.322,0.45-0.645,0.894-0.958,1.335
			c-0.638,0.872-1.247,1.729-1.846,2.554c-0.611,0.811-1.247,1.564-1.832,2.314c-0.594,0.738-1.145,1.454-1.709,2.119
			c-0.584,0.66-1.139,1.287-1.658,1.882c-0.524,0.588-1.012,1.14-1.467,1.656c-0.257,0.284-0.509,0.533-0.735,0.778
			c0.162,0.069,0.335,0.148,0.507,0.218c0.292,0.114,0.585,0.225,0.859,0.343c8.986,3.579,18.108,0.079,18.108,0.079
			C565.441,68.256,539.763,6.227,537.891,1.836"/>
		<path fill="#FFFFFF" d="M508.967,71.952c0.641-0.696,1.307-1.419,1.99-2.157c0.348-0.368,0.694-0.746,1.046-1.132
			c0.336-0.392,0.671-0.792,1.01-1.198c0.684-0.809,1.398-1.636,2.095-2.487c1.33-1.763,2.767-3.547,4.057-5.483
			c1.367-1.889,2.571-3.925,3.833-5.936c1.151-2.068,2.372-4.12,3.376-6.232c1.092-2.077,1.973-4.209,2.89-6.255
			c0.421-1.038,0.803-2.073,1.196-3.077c0.198-0.504,0.391-1.004,0.58-1.492c0.168-0.504,0.33-0.995,0.498-1.482
			c0.323-0.979,0.641-1.932,0.946-2.853c0.293-0.923,0.521-1.831,0.771-2.698c0.236-0.868,0.485-1.7,0.688-2.496
			c0.182-0.805,0.358-1.563,0.525-2.275c0.159-0.716,0.31-1.392,0.452-2.009c0.131-0.623,0.218-1.194,0.317-1.716
			c0.37-2.089,0.584-3.275,0.584-3.275s-0.008,0.169-0.025,0.479c0.663-5.218,1.554-12.137,2.092-16.346
			c-0.069-0.156-0.109-0.245-0.109-0.245s0.903,9.233-29.259,32.124c-4.192,3.187-7.688,6.334-10.593,9.398
			c-1.854,1.954-3.319,4.089-4.443,6.326c-4.399,8.79-3.271,19.204,2.315,26.969c1.066,1.493,2.291,2.881,3.681,4.144
			c0.356-0.292,0.774-0.634,1.265-1.03c0.404-0.337,0.885-0.711,1.354-1.113c0.452-0.404,0.935-0.836,1.455-1.298
			c0.52-0.461,1.074-0.953,1.658-1.474c0.581-0.534,1.171-1.144,1.803-1.749C507.633,73.261,508.309,72.638,508.967,71.952"/>
	</g>
	<g>
		<path fill="#FFFFFF" d="M270.891,114.17l-1.923,9.509c-0.805,3.944-1.207,6.745-1.207,8.397c0,3.279,3.228,4.92,9.688,4.92
			c6.408,0,12.054-1.122,16.937-3.365c-1.128,3.699-2.991,5.979-5.596,6.843c-1.578,0.519-4.319,1.055-8.224,1.61
			c-3.906,0.555-6.91,0.832-9.013,0.832c-8.186,0-12.279-2.677-12.279-8.028c0-1.431,0.401-4.182,1.202-8.25l2.516-12.468h-0.563
			c-2.528,0-4.981,0.544-7.36,1.627c1.377-2.664,2.51-4.364,3.399-5.104c0.888-0.739,2.296-1.11,4.225-1.11h1.239l3.681-18.239
			h-1.089c-4.632,0-8.925,1.456-12.88,4.365c1.251-3.945,2.966-6.485,5.144-7.622c1.702-0.862,6.946-1.294,15.735-1.294h11.188
			c7.061,0,12.793-0.69,17.2-2.071c-1.976,3.084-3.731,4.958-5.27,5.622c-1.536,0.668-4.868,1-9.992,1h-12.113l-3.736,18.239h7.767
			c5.428,0,9.754-0.678,12.98-2.034c-1.7,3.132-3.216,5.019-4.539,5.66c-1.327,0.643-4.441,0.962-9.345,0.962H270.891z"/>
		<path fill="#FFFFFF" d="M316.046,112.098h-0.75c-3.732,0-6.986,0.913-9.764,2.738c0.601-3.157,1.482-5.16,2.646-6.013
			c1.164-0.851,3.611-1.275,7.342-1.275h1.428l1.238-6.104c1.677-8.288,4.355-14.255,8.037-17.906
			c4.554-4.538,9.601-6.808,15.133-6.808c2.153,0,4.004,0.495,5.558,1.48c1.552,0.986,2.329,2.182,2.329,3.59
			c0,1.428-1.616,3.067-4.845,4.919c-0.901-3.774-2.955-5.66-6.159-5.66c-5.685,0-9.75,6.092-12.204,18.274l-1.652,8.215h13.105
			c5.982,0,10.377-0.321,13.18-0.963c-1.201,2.615-2.571,4.187-4.112,4.718c-1.537,0.529-5.5,0.795-11.883,0.795h-11.229
			l-6.383,31.744c-0.626,3.058-0.939,5.733-0.939,8.027c0,1.455,0.326,2.775,0.978,3.959c-2.505,0.813-4.433,1.22-5.784,1.22
			c-2.077,0-3.116-1.146-3.116-3.439c0-1.8,0.413-4.76,1.239-8.879L316.046,112.098z"/>
		<path fill="#FFFFFF" d="M349.987,112.098h-0.752c-3.729,0-6.986,0.913-9.764,2.738c0.602-3.157,1.483-5.16,2.647-6.013
			c1.166-0.851,3.611-1.275,7.341-1.275h1.428l1.239-6.104c1.676-8.288,4.356-14.255,8.036-17.906
			c4.556-4.538,9.6-6.808,15.132-6.808c2.153,0,4.007,0.495,5.558,1.48c1.553,0.986,2.33,2.182,2.33,3.59
			c0,1.428-1.614,3.067-4.845,4.919c-0.901-3.774-2.954-5.66-6.159-5.66c-5.683,0-9.751,6.092-12.205,18.274l-1.651,8.215h13.105
			c5.983,0,10.377-0.321,13.181-0.963c-1.201,2.615-2.57,4.187-4.111,4.718c-1.54,0.529-5.502,0.795-11.885,0.795h-11.229
			L351,143.842c-0.626,3.058-0.94,5.733-0.94,8.027c0,1.455,0.327,2.775,0.979,3.959c-2.503,0.813-4.433,1.22-5.784,1.22
			c-2.077,0-3.116-1.146-3.116-3.439c0-1.8,0.413-4.76,1.24-8.879L349.987,112.098z"/>
		<path fill="#FFFFFF" d="M385.953,126.144c0,7.212,3.105,10.816,9.313,10.816c5.384,0,11.316-2.522,17.801-7.567
			c6.483-5.045,12.329-11.688,17.535-19.935l3.193,1.735c-4.906,9.021-11.285,16.49-19.134,22.405
			c-7.847,5.916-15.29,8.873-22.323,8.873c-4.507,0-8.067-1.43-10.684-4.292c-2.617-2.861-3.925-6.769-3.925-11.728
			c0-7.151,2.371-13.27,7.116-18.351c4.744-5.08,10.458-7.621,17.143-7.621c3.229,0,5.814,0.802,7.754,2.404
			c1.94,1.604,2.912,3.748,2.912,6.436c0,4.411-2.698,8.32-8.093,11.721C399.166,124.442,392.965,126.144,385.953,126.144z
			 M386.254,122.593c5.233-0.271,9.721-1.748,13.464-4.428c3.742-2.681,5.613-5.78,5.613-9.298c0-3.149-1.427-4.724-4.28-4.724
			c-3.404,0-6.549,1.797-9.426,5.388C388.746,113.122,386.956,117.477,386.254,122.593z"/>
		<path fill="#FFFFFF" d="M483.847,111.32c-6.061,10.016-12.48,17.901-19.266,23.661c-6.784,5.759-13.08,8.636-18.888,8.636
			c-4.832,0-8.75-1.627-11.754-4.883c-3.005-3.255-4.507-7.483-4.507-12.688c0-6.857,2.593-12.831,7.772-17.925
			c5.185-5.093,11.267-7.641,18.252-7.641c2.829,0,5.149,0.537,6.965,1.611c1.815,1.072,2.722,2.436,2.722,4.087
			c0,2.713-2.339,4.747-7.021,6.104c0.249-0.592,0.376-1.158,0.376-1.703c0-3.995-2.153-5.992-6.459-5.992
			c-3.731,0-7.167,2.053-10.309,6.159c-3.142,4.108-4.711,8.602-4.711,13.485c0,3.972,1.042,7.21,3.134,9.713
			c2.091,2.503,4.811,3.753,8.167,3.753c9.213,0,20.003-9.408,32.371-28.228L483.847,111.32z"/>
		<path fill="#FFFFFF" d="M508.062,126.896c0.677,1.209,1.013,2.271,1.013,3.184c0,2.417-2.071,5.086-6.214,8.01
			c-4.144,2.923-7.918,4.383-11.322,4.383c-3.004,0-5.451-1.319-7.341-3.958c-1.892-2.64-2.835-6.042-2.835-10.211
			c0-4.637,1.24-11.234,3.717-19.795l1.729-6.215h-6.348c-2.655,0-4.769,0.371-6.347,1.112c1.451-2.599,2.652-4.228,3.605-4.891
			c0.951-0.661,2.565-0.993,4.845-0.993h5.669l0.751-2.561c1.151-3.809,2.528-6.425,4.132-7.848c1.603-1.422,4.005-2.135,7.21-2.135
			c0.375,0,0.976,0.024,1.802,0.075c-1.951,2.475-3.98,6.631-6.084,12.468h19.828c3.479,0,6.133-0.445,7.961-1.336
			c-0.626,2.526-1.458,4.178-2.497,4.948c-1.04,0.774-2.974,1.159-5.803,1.159H494.43c-0.251,0.814-0.438,1.42-0.562,1.813
			c-3.029,10.163-4.545,17.834-4.545,23.013c0,5.721,2.091,8.583,6.271,8.583c2.154,0,4.5-0.9,7.041-2.701
			C505.175,131.199,506.983,129.167,508.062,126.896z"/>
	</g>
	<g>
		<path fill="#FFFFFF" d="M39.273,142.575c0-5.402,8.81-15.497,8.81-20.281c0-2.391-4.764-3.1-12.226-3.1
			c-1.798,0-3.685,0.087-5.573,0.178l-3.416,4.428c-6.473,8.59-11.506,19.485-12.046,20.636c-0.899,1.949-5.304,2.214-6.922,2.214
			c-1.079,0-4.135-0.088-4.135-1.416c0-1.239,8.271-12.576,18.968-25.33c-3.506,0.354-7.641,0.797-7.821,0.797
			c-0.719,0-0.809-0.797-0.809-0.797c0-2.214,4.045-5.314,6.203-6.111c0.719-0.354,4.044-0.443,8.09-0.531l1.259-1.418
			C43.499,96.079,59.05,80.757,67.59,80.757c0,0,0.899-0.089,2.068-0.089c2.427,0,6.203,0.443,6.203,2.923
			c0,1.151-4.135,8.147-10.788,22.318c-5.933,12.843-15.282,34.541-16.9,41.448c0,0,0,0.709-1.438,0.709
			C43.588,148.066,39.273,144.523,39.273,142.575z M59.23,94.839c0-0.798-0.629-1.24-1.528-1.24
			c-3.776,0-13.485,9.389-22.384,19.662c5.214,0.088,9.798,0.177,9.798,0.177C53.117,113.438,59.23,97.672,59.23,94.839z"/>
		<path fill="#FFFFFF" d="M102.924,143.55c-2.877,0-3.686-4.605-3.686-4.605c-0.18-0.708-0.629-0.975-1.168-0.975
			c-0.629,0-1.529,0.267-1.978,0.622c-7.282,5.667-12.585,6.553-15.732,6.553c-8.54,0-9.349-7.972-9.349-12.311
			c0-14.171,20.496-51.634,45.488-51.634c0.628,0,4.225,0.176,6.292,1.326c0,0,0.36,0.179,0.81,0.179
			c0.27,0,0.629-0.089,0.899-0.266c0,0,2.248-1.506,5.663-1.506c0.899,0,3.596,0.089,3.596,1.683
			c0,2.569-7.372,13.639-12.855,17.183c-0.899,0.531-1.798,1.062-3.146,1.062c-1.348,0-1.978,0-1.978-1.24
			c0-0.708,2.337-4.162,2.337-7.883c0-2.213-0.45-4.694-4.854-4.694c-11.237,0-30.835,29.848-30.835,43.842
			c0,1.24,0.09,5.757,4.855,5.757c8.27,0,19.597-14.526,19.597-18.511c0-2.038-1.528-3.189-9.169-3.189
			c-0.72,0-1.079-0.087-1.079-0.796c0-0.886,1.079-2.479,2.337-3.632c0.989-0.885,1.977-1.151,2.787-1.239
			c0,0,6.472-0.444,12.136-0.444c4.585,0,8.629,0.268,8.629,1.24c0,2.305-7.101,13.285-13.124,22.939
			C105.621,139.122,104.003,143.55,102.924,143.55z"/>
		<path fill="#FFFFFF" d="M121.987,145.321c-2.517,0-2.787-0.886-2.787-1.24v-0.177c0-2.391,24.272-40.031,29.755-52.343
			c1.888-4.163,2.068-6.466,2.068-7.883v-0.886c0-0.974,1.438-2.391,13.664-2.391c12.675,0,24.092,0.62,24.092,12.311
			c0,5.758-5.125,11.16-10.338,13.904c-6.652,3.454-12.944,2.481-12.944,5.226c0,1.772,5.304,3.366,5.304,7.262
			c0,4.076-5.934,13.108-5.934,21.257c0,0.886,0.18,1.861,0.18,2.656c0,1.241-1.708,1.418-4.315,1.418
			c-6.023,0-7.551-1.328-7.551-2.922c0-5.402,8-19.043,8-23.824c0-4.074-3.686-4.694-5.844-4.694c-0.808,0-1.438,0.088-1.438,0.088
			c-0.989,0-1.079-0.442-1.079-0.797c0-2.038,1.798-5.137,4.585-5.137c11.146,0,21.125-7.972,21.125-14.88
			c0-5.49-3.865-6.819-9.079-6.819c-2.697,0-5.124,1.329-6.113,2.479c-7.461,9.211-28.407,47.118-30.205,53.053
			C131.875,144.259,125.852,145.321,121.987,145.321z"/>
		<path fill="#FFFFFF" d="M203.346,144.702c-10.069,0-16.181-5.758-16.181-15.5c0-16.119,17.798-49.332,43.868-49.332
			c10.068,0,16.181,5.668,16.181,15.411C247.214,111.4,229.415,144.702,203.346,144.702z M229.415,84.742
			c-12.405,0-31.193,27.544-31.193,44.815c0,2.301,0,9.741,7.192,9.741c12.315,0,31.193-27.544,31.193-44.814
			C236.607,92.182,236.607,84.742,229.415,84.742z"/>
	</g>
</g>
</svg>
